<mxfile host="app.diagrams.net" modified="2021-10-27T10:22:45.440Z" agent="5.0 (Windows NT 10.0; Win64; x64) AppleWebKit/537.36 (KHTML, like Gecko) Chrome/94.0.4606.81 Safari/537.36" etag="BzNsC6TDAKocnRaTojVf" version="15.5.9" type="github">
  <diagram id="zy0vX8nwkZSLOKzSKy2T" name="Page-1">
    <mxGraphModel dx="1730" dy="912" grid="1" gridSize="10" guides="1" tooltips="1" connect="1" arrows="1" fold="1" page="1" pageScale="1" pageWidth="1654" pageHeight="2336" math="0" shadow="0">
      <root>
        <mxCell id="0" />
        <mxCell id="1" parent="0" />
        <mxCell id="XzvyRVUBrka5If_maZZT-1" value="user" style="swimlane;fontStyle=0;childLayout=stackLayout;horizontal=1;startSize=26;horizontalStack=0;resizeParent=1;resizeParentMax=0;resizeLast=0;collapsible=1;marginBottom=0;align=center;fontSize=14;" parent="1" vertex="1">
          <mxGeometry x="120" y="140" width="160" height="222" as="geometry" />
        </mxCell>
        <mxCell id="XzvyRVUBrka5If_maZZT-2" value="id" style="text;strokeColor=none;fillColor=none;spacingLeft=4;spacingRight=4;overflow=hidden;rotatable=0;points=[[0,0.5],[1,0.5]];portConstraint=eastwest;fontSize=12;" parent="XzvyRVUBrka5If_maZZT-1" vertex="1">
          <mxGeometry y="26" width="160" height="30" as="geometry" />
        </mxCell>
        <mxCell id="XzvyRVUBrka5If_maZZT-3" value="email" style="text;strokeColor=none;fillColor=none;spacingLeft=4;spacingRight=4;overflow=hidden;rotatable=0;points=[[0,0.5],[1,0.5]];portConstraint=eastwest;fontSize=12;" parent="XzvyRVUBrka5If_maZZT-1" vertex="1">
          <mxGeometry y="56" width="160" height="30" as="geometry" />
        </mxCell>
        <mxCell id="XzvyRVUBrka5If_maZZT-4" value="password" style="text;strokeColor=none;fillColor=none;spacingLeft=4;spacingRight=4;overflow=hidden;rotatable=0;points=[[0,0.5],[1,0.5]];portConstraint=eastwest;fontSize=12;" parent="XzvyRVUBrka5If_maZZT-1" vertex="1">
          <mxGeometry y="86" width="160" height="34" as="geometry" />
        </mxCell>
        <mxCell id="XzvyRVUBrka5If_maZZT-13" value="role" style="text;strokeColor=none;fillColor=none;spacingLeft=4;spacingRight=4;overflow=hidden;rotatable=0;points=[[0,0.5],[1,0.5]];portConstraint=eastwest;fontSize=12;" parent="XzvyRVUBrka5If_maZZT-1" vertex="1">
          <mxGeometry y="120" width="160" height="34" as="geometry" />
        </mxCell>
        <mxCell id="XzvyRVUBrka5If_maZZT-14" value="name" style="text;strokeColor=none;fillColor=none;spacingLeft=4;spacingRight=4;overflow=hidden;rotatable=0;points=[[0,0.5],[1,0.5]];portConstraint=eastwest;fontSize=12;" parent="XzvyRVUBrka5If_maZZT-1" vertex="1">
          <mxGeometry y="154" width="160" height="34" as="geometry" />
        </mxCell>
        <mxCell id="XzvyRVUBrka5If_maZZT-15" value="profile_title" style="text;strokeColor=none;fillColor=none;spacingLeft=4;spacingRight=4;overflow=hidden;rotatable=0;points=[[0,0.5],[1,0.5]];portConstraint=eastwest;fontSize=12;" parent="XzvyRVUBrka5If_maZZT-1" vertex="1">
          <mxGeometry y="188" width="160" height="34" as="geometry" />
        </mxCell>
        <mxCell id="XzvyRVUBrka5If_maZZT-24" value="book" style="swimlane;fontStyle=0;childLayout=stackLayout;horizontal=1;startSize=26;horizontalStack=0;resizeParent=1;resizeParentMax=0;resizeLast=0;collapsible=1;marginBottom=0;align=center;fontSize=14;" parent="1" vertex="1">
          <mxGeometry x="900" y="80" width="160" height="392" as="geometry" />
        </mxCell>
        <mxCell id="XzvyRVUBrka5If_maZZT-25" value="id" style="text;strokeColor=none;fillColor=none;spacingLeft=4;spacingRight=4;overflow=hidden;rotatable=0;points=[[0,0.5],[1,0.5]];portConstraint=eastwest;fontSize=12;" parent="XzvyRVUBrka5If_maZZT-24" vertex="1">
          <mxGeometry y="26" width="160" height="30" as="geometry" />
        </mxCell>
        <mxCell id="UbjO6fKLPvaISXuTDBJe-8" value="user_id" style="text;strokeColor=none;fillColor=none;spacingLeft=4;spacingRight=4;overflow=hidden;rotatable=0;points=[[0,0.5],[1,0.5]];portConstraint=eastwest;fontSize=12;" vertex="1" parent="XzvyRVUBrka5If_maZZT-24">
          <mxGeometry y="56" width="160" height="30" as="geometry" />
        </mxCell>
        <mxCell id="XzvyRVUBrka5If_maZZT-26" value="views" style="text;strokeColor=none;fillColor=none;spacingLeft=4;spacingRight=4;overflow=hidden;rotatable=0;points=[[0,0.5],[1,0.5]];portConstraint=eastwest;fontSize=12;" parent="XzvyRVUBrka5If_maZZT-24" vertex="1">
          <mxGeometry y="86" width="160" height="34" as="geometry" />
        </mxCell>
        <mxCell id="XzvyRVUBrka5If_maZZT-27" value="title" style="text;strokeColor=none;fillColor=none;spacingLeft=4;spacingRight=4;overflow=hidden;rotatable=0;points=[[0,0.5],[1,0.5]];portConstraint=eastwest;fontSize=12;" parent="XzvyRVUBrka5If_maZZT-24" vertex="1">
          <mxGeometry y="120" width="160" height="34" as="geometry" />
        </mxCell>
        <mxCell id="XzvyRVUBrka5If_maZZT-28" value="author" style="text;strokeColor=none;fillColor=none;spacingLeft=4;spacingRight=4;overflow=hidden;rotatable=0;points=[[0,0.5],[1,0.5]];portConstraint=eastwest;fontSize=12;" parent="XzvyRVUBrka5If_maZZT-24" vertex="1">
          <mxGeometry y="154" width="160" height="34" as="geometry" />
        </mxCell>
        <mxCell id="XzvyRVUBrka5If_maZZT-29" value="likes" style="text;strokeColor=none;fillColor=none;spacingLeft=4;spacingRight=4;overflow=hidden;rotatable=0;points=[[0,0.5],[1,0.5]];portConstraint=eastwest;fontSize=12;" parent="XzvyRVUBrka5If_maZZT-24" vertex="1">
          <mxGeometry y="188" width="160" height="34" as="geometry" />
        </mxCell>
        <mxCell id="XzvyRVUBrka5If_maZZT-31" value="description" style="text;strokeColor=none;fillColor=none;spacingLeft=4;spacingRight=4;overflow=hidden;rotatable=0;points=[[0,0.5],[1,0.5]];portConstraint=eastwest;fontSize=12;" parent="XzvyRVUBrka5If_maZZT-24" vertex="1">
          <mxGeometry y="222" width="160" height="34" as="geometry" />
        </mxCell>
        <mxCell id="XzvyRVUBrka5If_maZZT-32" value="img" style="text;strokeColor=none;fillColor=none;spacingLeft=4;spacingRight=4;overflow=hidden;rotatable=0;points=[[0,0.5],[1,0.5]];portConstraint=eastwest;fontSize=12;" parent="XzvyRVUBrka5If_maZZT-24" vertex="1">
          <mxGeometry y="256" width="160" height="34" as="geometry" />
        </mxCell>
        <mxCell id="UbjO6fKLPvaISXuTDBJe-9" value="vegetarian" style="text;strokeColor=none;fillColor=none;spacingLeft=4;spacingRight=4;overflow=hidden;rotatable=0;points=[[0,0.5],[1,0.5]];portConstraint=eastwest;fontSize=12;" vertex="1" parent="XzvyRVUBrka5If_maZZT-24">
          <mxGeometry y="290" width="160" height="34" as="geometry" />
        </mxCell>
        <mxCell id="UbjO6fKLPvaISXuTDBJe-10" value="without_milk" style="text;strokeColor=none;fillColor=none;spacingLeft=4;spacingRight=4;overflow=hidden;rotatable=0;points=[[0,0.5],[1,0.5]];portConstraint=eastwest;fontSize=12;" vertex="1" parent="XzvyRVUBrka5If_maZZT-24">
          <mxGeometry y="324" width="160" height="34" as="geometry" />
        </mxCell>
        <mxCell id="UbjO6fKLPvaISXuTDBJe-11" value="without_eggs" style="text;strokeColor=none;fillColor=none;spacingLeft=4;spacingRight=4;overflow=hidden;rotatable=0;points=[[0,0.5],[1,0.5]];portConstraint=eastwest;fontSize=12;" vertex="1" parent="XzvyRVUBrka5If_maZZT-24">
          <mxGeometry y="358" width="160" height="34" as="geometry" />
        </mxCell>
        <mxCell id="XzvyRVUBrka5If_maZZT-34" value="recipe" style="swimlane;fontStyle=0;childLayout=stackLayout;horizontal=1;startSize=26;horizontalStack=0;resizeParent=1;resizeParentMax=0;resizeLast=0;collapsible=1;marginBottom=0;align=center;fontSize=14;" parent="1" vertex="1">
          <mxGeometry x="900" y="490" width="160" height="426" as="geometry" />
        </mxCell>
        <mxCell id="XzvyRVUBrka5If_maZZT-35" value="id" style="text;strokeColor=none;fillColor=none;spacingLeft=4;spacingRight=4;overflow=hidden;rotatable=0;points=[[0,0.5],[1,0.5]];portConstraint=eastwest;fontSize=12;" parent="XzvyRVUBrka5If_maZZT-34" vertex="1">
          <mxGeometry y="26" width="160" height="30" as="geometry" />
        </mxCell>
        <mxCell id="UbjO6fKLPvaISXuTDBJe-3" value="book_id" style="text;strokeColor=none;fillColor=none;spacingLeft=4;spacingRight=4;overflow=hidden;rotatable=0;points=[[0,0.5],[1,0.5]];portConstraint=eastwest;fontSize=12;" vertex="1" parent="XzvyRVUBrka5If_maZZT-34">
          <mxGeometry y="56" width="160" height="30" as="geometry" />
        </mxCell>
        <mxCell id="UbjO6fKLPvaISXuTDBJe-5" value="user_id" style="text;strokeColor=none;fillColor=none;spacingLeft=4;spacingRight=4;overflow=hidden;rotatable=0;points=[[0,0.5],[1,0.5]];portConstraint=eastwest;fontSize=12;" vertex="1" parent="XzvyRVUBrka5If_maZZT-34">
          <mxGeometry y="86" width="160" height="30" as="geometry" />
        </mxCell>
        <mxCell id="XzvyRVUBrka5If_maZZT-36" value="views" style="text;strokeColor=none;fillColor=none;spacingLeft=4;spacingRight=4;overflow=hidden;rotatable=0;points=[[0,0.5],[1,0.5]];portConstraint=eastwest;fontSize=12;" parent="XzvyRVUBrka5If_maZZT-34" vertex="1">
          <mxGeometry y="116" width="160" height="34" as="geometry" />
        </mxCell>
        <mxCell id="XzvyRVUBrka5If_maZZT-38" value="author" style="text;strokeColor=none;fillColor=none;spacingLeft=4;spacingRight=4;overflow=hidden;rotatable=0;points=[[0,0.5],[1,0.5]];portConstraint=eastwest;fontSize=12;" parent="XzvyRVUBrka5If_maZZT-34" vertex="1">
          <mxGeometry y="150" width="160" height="34" as="geometry" />
        </mxCell>
        <mxCell id="XzvyRVUBrka5If_maZZT-37" value="title" style="text;strokeColor=none;fillColor=none;spacingLeft=4;spacingRight=4;overflow=hidden;rotatable=0;points=[[0,0.5],[1,0.5]];portConstraint=eastwest;fontSize=12;" parent="XzvyRVUBrka5If_maZZT-34" vertex="1">
          <mxGeometry y="184" width="160" height="34" as="geometry" />
        </mxCell>
        <mxCell id="XzvyRVUBrka5If_maZZT-39" value="likes" style="text;strokeColor=none;fillColor=none;spacingLeft=4;spacingRight=4;overflow=hidden;rotatable=0;points=[[0,0.5],[1,0.5]];portConstraint=eastwest;fontSize=12;" parent="XzvyRVUBrka5If_maZZT-34" vertex="1">
          <mxGeometry y="218" width="160" height="34" as="geometry" />
        </mxCell>
        <mxCell id="XzvyRVUBrka5If_maZZT-41" value="description" style="text;strokeColor=none;fillColor=none;spacingLeft=4;spacingRight=4;overflow=hidden;rotatable=0;points=[[0,0.5],[1,0.5]];portConstraint=eastwest;fontSize=12;" parent="XzvyRVUBrka5If_maZZT-34" vertex="1">
          <mxGeometry y="252" width="160" height="34" as="geometry" />
        </mxCell>
        <mxCell id="XzvyRVUBrka5If_maZZT-42" value="img" style="text;strokeColor=none;fillColor=none;spacingLeft=4;spacingRight=4;overflow=hidden;rotatable=0;points=[[0,0.5],[1,0.5]];portConstraint=eastwest;fontSize=12;" parent="XzvyRVUBrka5If_maZZT-34" vertex="1">
          <mxGeometry y="286" width="160" height="34" as="geometry" />
        </mxCell>
        <mxCell id="XzvyRVUBrka5If_maZZT-43" value="directions" style="text;strokeColor=none;fillColor=none;spacingLeft=4;spacingRight=4;overflow=hidden;rotatable=0;points=[[0,0.5],[1,0.5]];portConstraint=eastwest;fontSize=12;" parent="XzvyRVUBrka5If_maZZT-34" vertex="1">
          <mxGeometry y="320" width="160" height="34" as="geometry" />
        </mxCell>
        <mxCell id="UbjO6fKLPvaISXuTDBJe-12" value="minutes" style="text;strokeColor=none;fillColor=none;spacingLeft=4;spacingRight=4;overflow=hidden;rotatable=0;points=[[0,0.5],[1,0.5]];portConstraint=eastwest;fontSize=12;" vertex="1" parent="XzvyRVUBrka5If_maZZT-34">
          <mxGeometry y="354" width="160" height="38" as="geometry" />
        </mxCell>
        <mxCell id="XzvyRVUBrka5If_maZZT-44" value="ingredients" style="text;strokeColor=none;fillColor=none;spacingLeft=4;spacingRight=4;overflow=hidden;rotatable=0;points=[[0,0.5],[1,0.5]];portConstraint=eastwest;fontSize=12;" parent="XzvyRVUBrka5If_maZZT-34" vertex="1">
          <mxGeometry y="392" width="160" height="34" as="geometry" />
        </mxCell>
        <mxCell id="XzvyRVUBrka5If_maZZT-59" value="reports" style="swimlane;fontStyle=0;childLayout=stackLayout;horizontal=1;startSize=26;horizontalStack=0;resizeParent=1;resizeParentMax=0;resizeLast=0;collapsible=1;marginBottom=0;align=center;fontSize=14;" parent="1" vertex="1">
          <mxGeometry x="370" y="520" width="160" height="294" as="geometry" />
        </mxCell>
        <mxCell id="XzvyRVUBrka5If_maZZT-60" value="id" style="text;strokeColor=none;fillColor=none;spacingLeft=4;spacingRight=4;overflow=hidden;rotatable=0;points=[[0,0.5],[1,0.5]];portConstraint=eastwest;fontSize=12;" parent="XzvyRVUBrka5If_maZZT-59" vertex="1">
          <mxGeometry y="26" width="160" height="30" as="geometry" />
        </mxCell>
        <mxCell id="XzvyRVUBrka5If_maZZT-61" value="user_id" style="text;strokeColor=none;fillColor=none;spacingLeft=4;spacingRight=4;overflow=hidden;rotatable=0;points=[[0,0.5],[1,0.5]];portConstraint=eastwest;fontSize=12;" parent="XzvyRVUBrka5If_maZZT-59" vertex="1">
          <mxGeometry y="56" width="160" height="34" as="geometry" />
        </mxCell>
        <mxCell id="XzvyRVUBrka5If_maZZT-63" value="book_id" style="text;strokeColor=none;fillColor=none;spacingLeft=4;spacingRight=4;overflow=hidden;rotatable=0;points=[[0,0.5],[1,0.5]];portConstraint=eastwest;fontSize=12;" parent="XzvyRVUBrka5If_maZZT-59" vertex="1">
          <mxGeometry y="90" width="160" height="34" as="geometry" />
        </mxCell>
        <mxCell id="XzvyRVUBrka5If_maZZT-62" value="recipe_id" style="text;strokeColor=none;fillColor=none;spacingLeft=4;spacingRight=4;overflow=hidden;rotatable=0;points=[[0,0.5],[1,0.5]];portConstraint=eastwest;fontSize=12;" parent="XzvyRVUBrka5If_maZZT-59" vertex="1">
          <mxGeometry y="124" width="160" height="34" as="geometry" />
        </mxCell>
        <mxCell id="XzvyRVUBrka5If_maZZT-64" value="book_is_like&#xa;" style="text;strokeColor=none;fillColor=none;spacingLeft=4;spacingRight=4;overflow=hidden;rotatable=0;points=[[0,0.5],[1,0.5]];portConstraint=eastwest;fontSize=12;" parent="XzvyRVUBrka5If_maZZT-59" vertex="1">
          <mxGeometry y="158" width="160" height="34" as="geometry" />
        </mxCell>
        <mxCell id="UbjO6fKLPvaISXuTDBJe-1" value="recipe_is_like&#xa;" style="text;strokeColor=none;fillColor=none;spacingLeft=4;spacingRight=4;overflow=hidden;rotatable=0;points=[[0,0.5],[1,0.5]];portConstraint=eastwest;fontSize=12;" vertex="1" parent="XzvyRVUBrka5If_maZZT-59">
          <mxGeometry y="192" width="160" height="34" as="geometry" />
        </mxCell>
        <mxCell id="XzvyRVUBrka5If_maZZT-65" value="comment_book" style="text;strokeColor=none;fillColor=none;spacingLeft=4;spacingRight=4;overflow=hidden;rotatable=0;points=[[0,0.5],[1,0.5]];portConstraint=eastwest;fontSize=12;" parent="XzvyRVUBrka5If_maZZT-59" vertex="1">
          <mxGeometry y="226" width="160" height="34" as="geometry" />
        </mxCell>
        <mxCell id="UbjO6fKLPvaISXuTDBJe-2" value="comment_recipe" style="text;strokeColor=none;fillColor=none;spacingLeft=4;spacingRight=4;overflow=hidden;rotatable=0;points=[[0,0.5],[1,0.5]];portConstraint=eastwest;fontSize=12;" vertex="1" parent="XzvyRVUBrka5If_maZZT-59">
          <mxGeometry y="260" width="160" height="34" as="geometry" />
        </mxCell>
        <mxCell id="XzvyRVUBrka5If_maZZT-66" value="" style="edgeStyle=entityRelationEdgeStyle;fontSize=12;html=1;endArrow=ERoneToMany;rounded=0;exitX=0.996;exitY=0.829;exitDx=0;exitDy=0;entryX=0;entryY=0.5;entryDx=0;entryDy=0;exitPerimeter=0;" parent="1" source="XzvyRVUBrka5If_maZZT-2" target="XzvyRVUBrka5If_maZZT-61" edge="1">
          <mxGeometry width="100" height="100" relative="1" as="geometry">
            <mxPoint x="300" y="462" as="sourcePoint" />
            <mxPoint x="360" y="630" as="targetPoint" />
          </mxGeometry>
        </mxCell>
        <mxCell id="XzvyRVUBrka5If_maZZT-67" value="" style="edgeStyle=entityRelationEdgeStyle;fontSize=12;html=1;endArrow=ERoneToMany;rounded=0;entryX=1;entryY=0.5;entryDx=0;entryDy=0;" parent="1" source="XzvyRVUBrka5If_maZZT-25" target="XzvyRVUBrka5If_maZZT-63" edge="1">
          <mxGeometry width="100" height="100" relative="1" as="geometry">
            <mxPoint x="540" y="330" as="sourcePoint" />
            <mxPoint x="670" y="350" as="targetPoint" />
          </mxGeometry>
        </mxCell>
        <mxCell id="XzvyRVUBrka5If_maZZT-68" value="" style="edgeStyle=entityRelationEdgeStyle;fontSize=12;html=1;endArrow=ERoneToMany;rounded=0;entryX=1;entryY=0.5;entryDx=0;entryDy=0;exitX=0;exitY=0.5;exitDx=0;exitDy=0;" parent="1" source="XzvyRVUBrka5If_maZZT-35" target="XzvyRVUBrka5If_maZZT-62" edge="1">
          <mxGeometry width="100" height="100" relative="1" as="geometry">
            <mxPoint x="880" y="720" as="sourcePoint" />
            <mxPoint x="538.4000000000001" y="549.662" as="targetPoint" />
          </mxGeometry>
        </mxCell>
        <mxCell id="UbjO6fKLPvaISXuTDBJe-4" value="" style="edgeStyle=entityRelationEdgeStyle;fontSize=12;html=1;endArrow=ERoneToMany;rounded=0;exitX=1;exitY=0.5;exitDx=0;exitDy=0;entryX=1;entryY=0.5;entryDx=0;entryDy=0;" edge="1" parent="1" source="XzvyRVUBrka5If_maZZT-25" target="UbjO6fKLPvaISXuTDBJe-3">
          <mxGeometry width="100" height="100" relative="1" as="geometry">
            <mxPoint x="620" y="510" as="sourcePoint" />
            <mxPoint x="1330" y="580" as="targetPoint" />
          </mxGeometry>
        </mxCell>
        <mxCell id="UbjO6fKLPvaISXuTDBJe-6" value="" style="edgeStyle=entityRelationEdgeStyle;fontSize=12;html=1;endArrow=ERoneToMany;rounded=0;exitX=1.002;exitY=0.644;exitDx=0;exitDy=0;exitPerimeter=0;" edge="1" parent="1" source="XzvyRVUBrka5If_maZZT-2" target="UbjO6fKLPvaISXuTDBJe-5">
          <mxGeometry width="100" height="100" relative="1" as="geometry">
            <mxPoint x="280" y="181" as="sourcePoint" />
            <mxPoint x="770" y="300" as="targetPoint" />
          </mxGeometry>
        </mxCell>
        <mxCell id="UbjO6fKLPvaISXuTDBJe-7" value="" style="edgeStyle=entityRelationEdgeStyle;fontSize=12;html=1;endArrow=ERoneToMany;rounded=0;exitX=0.998;exitY=0.399;exitDx=0;exitDy=0;exitPerimeter=0;entryX=0;entryY=0.5;entryDx=0;entryDy=0;" edge="1" parent="1" source="XzvyRVUBrka5If_maZZT-2" target="UbjO6fKLPvaISXuTDBJe-8">
          <mxGeometry width="100" height="100" relative="1" as="geometry">
            <mxPoint x="670" y="480" as="sourcePoint" />
            <mxPoint x="770" y="380" as="targetPoint" />
          </mxGeometry>
        </mxCell>
      </root>
    </mxGraphModel>
  </diagram>
</mxfile>
